<svg xmlns="http://www.w3.org/2000/svg" viewBox="0 0 659.84 144.11"><defs><style>.cls-1{fill:#fff;}</style></defs><title>logo Eco Pet</title><g id="Camada_2" data-name="Camada 2"><g id="Logo"><g id="logo_v" data-name="logo v"><path id="logo-2" data-name="logo" class="cls-1" d="M118.86,83.73h24.29a73.61,73.61,0,0,0,.94-11.67,72,72,0,1,0-25.36,54.87l7.71,10.68L140,95.93H96.36l8.24,11.42A48.35,48.35,0,0,1,25.23,83.73h93.63Zm-46.81-60A48.37,48.37,0,0,1,118.86,60H25.23A48.37,48.37,0,0,1,72.05,23.71Z"/><path class="cls-1" d="M209.32,34.2a36,36,0,0,1,14.66,3,38.36,38.36,0,0,1,12,8.22,40.09,40.09,0,0,1,8.14,12,36,36,0,0,1,3,14.66,19.89,19.89,0,0,1-.65,5.21h-62.7a26.17,26.17,0,0,0,3.1,8.7,25.46,25.46,0,0,0,5.7,6.8,27,27,0,0,0,7.65,4.52A25.12,25.12,0,0,0,209.32,99a27,27,0,0,0,10.34-2,26.21,26.21,0,0,0,8.72-5.78L236.19,99A40,40,0,0,1,224,107a38.05,38.05,0,0,1-41.44-8.1,38,38,0,0,1,0-53.58,38.65,38.65,0,0,1,12.05-8.14A36.45,36.45,0,0,1,209.32,34.2Zm0,10.91a25.82,25.82,0,0,0-16.77,6.14A27.73,27.73,0,0,0,186.77,58a22.14,22.14,0,0,0-3,8.4h51.14a25.35,25.35,0,0,0-3.1-8.4,26.35,26.35,0,0,0-5.69-6.79,25.82,25.82,0,0,0-16.78-6.14Z"/><path class="cls-1" d="M320.9,98.85a37.88,37.88,0,0,1-53.65-53.5,38.76,38.76,0,0,1,12.05-8.14,36.5,36.5,0,0,1,14.74-3,37.65,37.65,0,0,1,14.57,2.93,37.21,37.21,0,0,1,12.29,8.14l-7.81,7.82a27.53,27.53,0,0,0-8.71-5.87A26.52,26.52,0,0,0,275,53a27.61,27.61,0,0,0-5.7,8.63,26.34,26.34,0,0,0-2.12,10.5,25.75,25.75,0,0,0,2.12,10.42,27.94,27.94,0,0,0,5.7,8.55A26.37,26.37,0,0,0,294,99a27.2,27.2,0,0,0,10.26-2,26,26,0,0,0,8.79-5.78Z"/><path class="cls-1" d="M367.84,34.2a36.53,36.53,0,0,1,14.74,3A38.24,38.24,0,0,1,402.77,57.4a37.6,37.6,0,0,1,0,29.48,38.76,38.76,0,0,1-8.14,12.05,37.89,37.89,0,0,1-53.58-53.58,38.69,38.69,0,0,1,12.06-8.14A36.45,36.45,0,0,1,367.84,34.2Zm0,64.81a26.52,26.52,0,0,0,10.5-2.12,27,27,0,0,0,14.41-14.33,25.92,25.92,0,0,0,2.12-10.42,26.52,26.52,0,0,0-2.12-10.5,26.83,26.83,0,0,0-14.41-14.42,26.51,26.51,0,0,0-10.5-2.11,26,26,0,0,0-10.42,2.11A27.32,27.32,0,0,0,348.87,53a26.81,26.81,0,0,0-5.78,8.63A26.34,26.34,0,0,0,341,72.14a25.75,25.75,0,0,0,2.12,10.42,27.19,27.19,0,0,0,14.33,14.33A26,26,0,0,0,367.84,99Z"/><path class="cls-1" d="M471.85,34.2a37.47,37.47,0,0,1,15,3,40.59,40.59,0,0,1,12.29,8.14,37.63,37.63,0,0,1,8.31,12,36.08,36.08,0,0,1,3,14.66,36.62,36.62,0,0,1-3,14.73,37.32,37.32,0,0,1-8.31,12.05,39.29,39.29,0,0,1-12.29,8.06,38.29,38.29,0,0,1-15,2.93,33.65,33.65,0,0,1-15.4-3.58,34.62,34.62,0,0,1-11.8-9.6v47.54h-11.4V34.2h11.4V47.55a35.46,35.46,0,0,1,11.8-9.69A33.09,33.09,0,0,1,471.85,34.2Zm0,64.65a26,26,0,0,0,10.42-2.12A29.19,29.19,0,0,0,490.9,91a26.82,26.82,0,0,0,5.94-8.47,26.21,26.21,0,0,0,.08-20.84,27.13,27.13,0,0,0-5.78-8.55,28.36,28.36,0,0,0-8.63-5.87,26.91,26.91,0,0,0-21.08-.08A28.32,28.32,0,0,0,452.79,53a27.82,27.82,0,0,0-5.94,8.54A25.09,25.09,0,0,0,444.65,72a25.37,25.37,0,0,0,2.12,10.34,26.38,26.38,0,0,0,5.78,8.38,28.84,28.84,0,0,0,8.63,5.78A28,28,0,0,0,471.85,98.85Z"/><path class="cls-1" d="M557.37,34.2a35.91,35.91,0,0,1,14.66,3,38.36,38.36,0,0,1,12,8.22,40.09,40.09,0,0,1,8.14,12,36,36,0,0,1,3,14.66,20.32,20.32,0,0,1-.65,5.21h-62.7a25.73,25.73,0,0,0,3.1,8.7,25.46,25.46,0,0,0,5.7,6.8,26.75,26.75,0,0,0,7.65,4.52A25.07,25.07,0,0,0,557.37,99a27,27,0,0,0,10.35-2,26.17,26.17,0,0,0,8.71-5.78L584.24,99A40,40,0,0,1,572,107a38.56,38.56,0,0,1-29.39,0,37.95,37.95,0,0,1-12-61.64,38.65,38.65,0,0,1,12-8.14A36.48,36.48,0,0,1,557.37,34.2Zm0,10.91a25.77,25.77,0,0,0-16.76,6.14A27.77,27.77,0,0,0,534.82,58a22,22,0,0,0-3,8.4h51.13a25.12,25.12,0,0,0-3.09-8.4,26.39,26.39,0,0,0-5.7-6.79,25.82,25.82,0,0,0-16.78-6.14Z"/><path class="cls-1" d="M633,72.14a25.37,25.37,0,0,0,2.12,10.34,27.33,27.33,0,0,0,5.7,8.39,28.45,28.45,0,0,0,8.47,5.78A27.51,27.51,0,0,0,659.84,99v10.91a37.59,37.59,0,0,1-37.78-37.78V41.36H604.31V30.45h17.75V0H633V30.45h26.87V41.36H633Z"/></g></g></g></svg>